IKResults
version=1
nRows=37
nColumns=24
inDegrees=yes

Units are S.I. units (second, meters, Newtons, ...)
If the header above contains a line with 'inDegrees', this indicates whether rotational values are in degrees (yes) or radians (no).

endheader
time	pelvis_tilt	pelvis_list	pelvis_rotation	pelvis_tx	pelvis_ty	pelvis_tz	hip_flexion_r	hip_adduction_r	hip_rotation_r	knee_angle_r	ankle_angle_r	subtalar_angle_r	mtp_angle_r	hip_flexion_l	hip_adduction_l	hip_rotation_l	knee_angle_l	ankle_angle_l	subtalar_angle_l	mtp_angle_l	lumbar_extension	lumbar_bending	lumbar_rotation
3.075000	10.133802	5.744694	-177.997160	0.317677	0.364813	-1.204624	99.734616	-38.105037	-0.375162	-134.877997	42.499321	9.790100	0.000000	113.177191	-37.107737	17.389721	-134.414447	41.716035	27.357824	0.000000	-19.615045	5.622399	4.346706
3.080000	10.142586	5.746978	-177.995208	0.317721	0.364475	-1.204506	99.813850	-38.119515	-0.308803	-134.910677	42.478319	9.833970	0.000000	113.238739	-37.094602	17.409981	-134.456779	41.706587	27.379193	0.000000	-19.620709	5.640197	4.310229
3.085000	10.122324	5.759848	-177.996117	0.317731	0.364229	-1.204354	99.862732	-38.136965	-0.232033	-134.961214	42.395245	9.814334	0.000000	113.279773	-37.081453	17.440989	-134.506640	41.704485	27.370929	0.000000	-19.654461	5.668143	4.328275
3.090000	10.112468	5.767975	-178.002796	0.317765	0.364004	-1.204196	99.923933	-38.143001	-0.203365	-134.983492	42.352095	9.866896	0.000000	113.315371	-37.070953	17.461010	-134.556076	41.723092	27.365076	0.000000	-19.671574	5.683789	4.368332
3.095000	10.095997	5.773655	-178.010086	0.317789	0.363778	-1.204064	99.949634	-38.147370	-0.157876	-135.015567	42.358770	9.871775	0.000000	113.345804	-37.066453	17.480921	-134.604215	41.726202	27.359009	0.000000	-19.698360	5.702422	4.387300
3.100000	10.088220	5.774030	-178.013986	0.317877	0.363596	-1.204018	99.980152	-38.138356	-0.128559	-135.028913	42.356336	9.880166	0.000000	113.367470	-37.057132	17.490850	-134.624709	41.723359	27.359047	0.000000	-19.728014	5.714268	4.388834
3.105000	10.092599	5.759624	-178.020088	0.317939	0.363396	-1.203959	100.046247	-38.134852	-0.061263	-135.046807	42.311116	9.940155	0.000000	113.389443	-37.058532	17.478173	-134.654791	41.721151	27.369684	0.000000	-19.742146	5.710834	4.371900
3.110000	10.079331	5.766541	-178.026280	0.317949	0.363253	-1.203781	100.075506	-38.145645	-0.033607	-135.061371	42.311801	9.937027	0.000000	113.401303	-37.043991	17.487998	-134.693278	41.729828	27.364232	0.000000	-19.764391	5.732194	4.418637
3.115000	10.067459	5.778381	-178.054356	0.317915	0.363113	-1.203613	100.109249	-38.138742	-0.013760	-135.079497	42.264592	9.940414	0.000000	113.427755	-37.053141	17.521300	-134.742380	41.747838	27.326992	0.000000	-19.782542	5.762832	4.451235
3.120000	10.061559	5.785666	-178.060231	0.317937	0.363009	-1.203474	100.132808	-38.141581	0.009092	-135.088077	42.261816	9.936092	0.000000	113.441799	-37.040505	17.527402	-134.776017	41.742693	27.321759	0.000000	-19.797968	5.783720	4.471983
3.125000	10.076009	5.789083	-178.057460	0.318070	0.363014	-1.203392	100.155453	-38.140123	0.018655	-135.065912	42.241528	9.937769	0.000000	113.451790	-37.015421	17.503137	-134.759662	41.738933	27.289031	0.000000	-19.808591	5.797776	4.500552
3.130000	10.099983	5.781032	-178.051502	0.318197	0.362992	-1.203307	100.198919	-38.135353	0.052670	-135.047976	42.217725	9.942748	0.000000	113.458265	-36.988853	17.459301	-134.748201	41.748617	27.275581	0.000000	-19.808762	5.803050	4.503913
3.135000	10.101649	5.784854	-178.054746	0.318286	0.363020	-1.203262	100.206244	-38.117764	0.065992	-135.033027	42.216325	9.945651	0.000000	113.458862	-36.979335	17.447888	-134.734068	41.747968	27.274314	0.000000	-19.828765	5.812170	4.514123
3.140000	10.093421	5.776997	-178.075725	0.318326	0.363013	-1.203128	100.234939	-38.106997	0.089828	-135.029411	42.165099	9.943826	0.000000	113.444299	-36.987637	17.428389	-134.760363	41.736919	27.236911	0.000000	-19.853245	5.807161	4.566127
3.145000	10.093369	5.781966	-178.102383	0.318304	0.362955	-1.202980	100.275517	-38.092927	0.110905	-135.031764	42.097204	9.929188	0.000000	113.456204	-36.997603	17.436883	-134.791780	41.747128	27.188130	0.000000	-19.854961	5.818373	4.615521
3.150000	10.100312	5.783637	-178.112625	0.318357	0.362957	-1.202884	100.289463	-38.086236	0.121644	-135.020247	42.095022	9.930193	0.000000	113.459492	-36.990057	17.427385	-134.802771	41.743110	27.183209	0.000000	-19.867692	5.830111	4.625991
3.155000	10.129862	5.754615	-178.126356	0.318475	0.363011	-1.202860	100.350462	-38.065221	0.163164	-134.994305	42.053473	9.934567	0.000000	113.444618	-36.997063	17.358073	-134.781571	41.728551	27.148109	0.000000	-19.860038	5.803924	4.647138
3.160000	10.168939	5.748347	-178.103171	0.318631	0.363105	-1.202834	100.387052	-38.073464	0.167862	-134.957709	42.051636	9.917410	0.000000	113.418952	-36.967668	17.259706	-134.734868	41.777201	27.083718	0.000000	-19.852695	5.813504	4.601708
3.165000	10.179630	5.749708	-178.104443	0.318713	0.363210	-1.202790	100.388683	-38.059481	0.173126	-134.931143	42.051015	9.921660	0.000000	113.409422	-36.955903	17.234027	-134.710177	41.768633	27.080133	0.000000	-19.861352	5.816374	4.616770
3.170000	10.182246	5.714824	-178.112825	0.318753	0.363342	-1.202683	100.428616	-38.063108	0.217156	-134.909567	42.012393	9.923760	0.000000	113.380839	-36.960301	17.188603	-134.713601	41.720572	27.066487	0.000000	-19.872170	5.779577	4.668383
3.175000	10.183502	5.697557	-178.131235	0.318827	0.363511	-1.202608	100.441236	-38.046653	0.235806	-134.881971	41.971690	9.919796	0.000000	113.338157	-36.976605	17.136492	-134.692039	41.717935	27.002162	0.000000	-19.902298	5.768594	4.674506
3.180000	10.203807	5.694488	-178.134241	0.318919	0.363657	-1.202555	100.440684	-38.046316	0.216705	-134.843059	41.970847	9.914705	0.000000	113.321764	-36.973786	17.092260	-134.666355	41.712026	27.000595	0.000000	-19.909486	5.777123	4.679171
3.185000	10.237948	5.654243	-178.098976	0.319068	0.363757	-1.202491	100.495682	-38.080205	0.277583	-134.811284	41.970592	9.708242	0.000000	113.247360	-36.942059	16.936032	-134.616850	41.728180	26.891770	0.000000	-19.905945	5.747481	4.620834
3.190000	10.239944	5.628673	-178.109168	0.319113	0.363942	-1.202414	100.498382	-38.081189	0.295402	-134.766133	41.938526	9.880503	0.000000	113.212497	-36.950038	16.893866	-134.606400	41.675729	26.886454	0.000000	-19.929225	5.730100	4.631979
3.195000	10.249913	5.642579	-178.112975	0.319194	0.364224	-1.202340	100.470992	-38.083718	0.232869	-134.710242	41.899199	9.823839	0.000000	113.157726	-36.950140	16.823634	-134.550325	41.727090	26.811508	0.000000	-19.944604	5.753195	4.669846
3.200000	10.252356	5.634771	-178.128389	0.319203	0.364496	-1.202244	100.435859	-38.082670	0.227938	-134.666948	41.899648	9.836930	0.000000	113.123611	-36.957899	16.803224	-134.534620	41.700441	26.810152	0.000000	-19.962283	5.752846	4.700117
3.205000	10.256352	5.617523	-178.121480	0.319299	0.364858	-1.202174	100.407390	-38.081203	0.226522	-134.605294	41.895415	9.829415	0.000000	113.035288	-36.948559	16.709278	-134.480608	41.710626	26.789910	0.000000	-19.994976	5.737465	4.719177
3.210000	10.266649	5.598496	-178.096508	0.319428	0.365260	-1.202189	100.363306	-38.091061	0.208005	-134.531725	41.888021	9.839636	0.000000	112.920770	-36.944370	16.572042	-134.394268	41.744745	26.718447	0.000000	-20.021599	5.712869	4.696149
3.215000	10.284746	5.554667	-178.074337	0.319518	0.365630	-1.202178	100.361641	-38.094376	0.237209	-134.458260	41.876930	9.677409	0.000000	112.809948	-36.940187	16.433392	-134.327009	41.735537	26.685614	0.000000	-20.028346	5.670263	4.636157
3.220000	10.300288	5.547733	-178.095168	0.319593	0.366112	-1.202102	100.310579	-38.067128	0.193543	-134.368882	41.823924	9.799995	0.000000	112.726218	-36.963437	16.348817	-134.258976	41.745791	26.624512	0.000000	-20.046206	5.669418	4.673269
3.225000	10.274238	5.523796	-178.117579	0.319573	0.366751	-1.201998	100.210595	-38.048941	0.158152	-134.283510	41.811645	9.786317	0.000000	112.589192	-36.998314	16.269240	-134.202255	41.707674	26.572511	0.000000	-20.088921	5.641862	4.733997
3.230000	10.296429	5.481204	-178.124861	0.319583	0.367244	-1.201884	100.204344	-38.038636	0.170360	-134.211215	41.782669	9.724779	0.000000	112.464580	-37.015458	16.132080	-134.143621	41.726545	26.477628	0.000000	-20.073819	5.602999	4.765557
3.235000	10.315581	5.454464	-178.108394	0.319673	0.367945	-1.201807	100.131564	-38.043654	0.138324	-134.095919	41.754291	9.691602	0.000000	112.309681	-36.999578	15.978675	-134.030514	41.740045	26.422409	0.000000	-20.078021	5.588380	4.755343
3.240000	10.329913	5.392654	-178.090158	0.319836	0.368851	-1.201851	100.036831	-38.016893	0.120058	-133.942848	41.758247	9.642381	0.000000	112.088346	-37.009208	15.757340	-133.871120	41.740316	26.366057	0.000000	-20.105818	5.538633	4.685084
3.245000	10.385259	5.323368	-178.060444	0.319992	0.369736	-1.201809	99.998758	-38.003965	0.139520	-133.787101	41.758512	9.624151	0.000000	111.872229	-36.994851	15.478249	-133.708780	41.725646	26.216408	0.000000	-20.079939	5.474275	4.665927
3.250000	10.402149	5.275211	-178.070876	0.320016	0.370763	-1.201748	99.871349	-37.964801	0.071992	-133.618492	41.793753	9.555606	0.000000	111.665134	-37.008243	15.311523	-133.570770	41.704511	26.208742	0.000000	-20.068510	5.428758	4.698843
3.255000	10.414322	5.219330	-178.064423	0.320014	0.371842	-1.201638	99.764306	-37.941344	0.046396	-133.459513	41.737457	9.476963	0.000000	111.410005	-37.014764	15.092470	-133.420611	41.716668	26.105967	0.000000	-20.061203	5.382340	4.691394
